# xmcd
#
# Track frame offsets:
#	182
#	20580
#	30577
#	53892
#	70210
#	86300
#	102140
#	129745
#	148387
#	161357
#	178712
#	197805
#	209615
#	223582
#	242155
#	252422
#	266820
#	296172
#
# Disc length: 4387
#
# Revision: 1
# Processed by: cddbd v1.5.1PL0 Copyright (c) Steve Scherf et al.
# Submitted via: ExactAudioCopy v0.90b4
# Normalized: r0:DSETVAR1,TDELIM( - )
#
DISCID=1b112112
DTITLE=Various Artist - Austrian Blues Summit
DYEAR=1900
DGENRE=Blues
TTITLE0=Peter Gastenauer and Band - No Doubt
TTITLE1=Hooked on Blues - Goin' Out Tonight
TTITLE2=Mojo Blues Band - Black Silk
TTITLE3=Dana Gillespie and Joachim Palden - Big Boy
TTITLE4=Christian Dozzler and Peter Kern - I'm Mean
TTITLE5=Hans Theessink - Late Last Night
TTITLE6=Sir Oliver's Blues Distillery - Fool For You
TTITLE7=Joachim Palden - Down The Road A Piece
TTITLE8=Al Cook and Chris Sandera - Blue Prayer
TTITLE9=The Untouchables - Dancing With The Ladies
TTITLE10=Dana Gillespie - Make Your Pudding
TTITLE11=Hooked On Blues feat. Oliver Humer - Never Miss You
TTITLE12=Andy Lee Lang - Louisiana Mardi Gras
TTITLE13=Martin Pyrker - Return To Blues
TTITLE14=Al Cook - No Kind Hearted Woman's Slave
TTITLE15=Peter Kern and Christian Dozzler - Wild About You Baby
TTITLE16=Bluespumpn - Boogie Of Love And Insanity
TTITLE17=Ripoff Raskolnikov - Salty Solitude
EXTD=
EXTT0=
EXTT1=
EXTT2=
EXTT3=
EXTT4=
EXTT5=
EXTT6=
EXTT7=
EXTT8=
EXTT9=
EXTT10=
EXTT11=
EXTT12=
EXTT13=
EXTT14=
EXTT15=
EXTT16=
EXTT17=
PLAYORDER=
